<?xml version="1.0" encoding="iso-8859-1"?>
<!-- Generator: Adobe Illustrator 24.1.0, SVG Export Plug-In . SVG Version: 6.00 Build 0)  -->
<svg version="1.1" xmlns="http://www.w3.org/2000/svg" xmlns:xlink="http://www.w3.org/1999/xlink" x="0px" y="0px"
	 viewBox="0 0 512 512" style="enable-background:new 0 0 512 512;" xml:space="preserve">
<g id="_x32_5_Safety_Helmet_x2C__construction_tools_x2C__carpentor_x2C__labor_x2C__carpentry">
	<g>
		<g id="XMLID_832_">
			<g id="XMLID_833_">
				<path id="XMLID_838_" style="fill:#020000;" d="M202.59,249.88c1.95,14.94,14.68,26.12,29.75,26.12h42.88
					c14.83,0,27.43-10.83,29.66-25.49c0.844-5.543,24.573-161.476,25.87-170C333.51,62.36,319.46,46,301.09,46h-90.92
					c-18.11,0-32.09,15.92-29.75,33.88C204.273,262.788,202.435,248.69,202.59,249.88z"/>
				<path id="XMLID_837_" style="fill:#020000;" d="M111,316c5.514,0,10-4.486,10-10V138.519c-7.042,5.426-13.725,11.294-20,17.572
					V306C101,311.514,105.486,316,111,316z"/>
				<path id="XMLID_836_" style="fill:#020000;" d="M401,316c5.514,0,10-4.486,10-10V156.108c-6.281-6.283-12.961-12.16-20-17.583
					V306C391,311.514,395.486,316,401,316z"/>
				<path id="XMLID_835_" style="fill:#020000;" d="M471,301c0-45.735-14.931-87.748-40-121.667V306c0,16.542-13.458,30-30,30
					s-30-13.458-30-30V124.917c-7.961-4.759-16.26-8.995-24.853-12.648l-21.495,141.251C320.909,278.133,300.119,296,275.22,296
					h-42.88c-25.027,0-46.342-18.715-49.582-43.531l-18.215-139.642c-8.136,3.527-15.995,7.569-23.543,12.079V306
					c0,16.542-13.458,30-30,30s-30-13.458-30-30V179.338C55.864,213.368,41,255.445,41,301v75h430V301z"/>
				<path id="XMLID_834_" style="fill:#020000;" d="M501,396H11c-5.523,0-10,4.477-10,10v50c0,5.523,4.477,10,10,10h490
					c5.523,0,10-4.477,10-10v-50C511,400.477,506.523,396,501,396z"/>
			</g>
		</g>
	</g>
</g>
<g id="Layer_1">
</g>
</svg>
