<?xml version="1.0" encoding="iso-8859-1"?>
<!-- Generator: Adobe Illustrator 19.0.0, SVG Export Plug-In . SVG Version: 6.00 Build 0)  -->
<svg version="1.1" xmlns="http://www.w3.org/2000/svg" xmlns:xlink="http://www.w3.org/1999/xlink" x="0px" y="0px"
	 viewBox="0 0 512 512" style="enable-background:new 0 0 512 512;" xml:space="preserve">
<g id="_x34_2_x2C__Availability_x2C__ready_x2C__tick_x2C__check_x2C__mark_x2C__miscellaneous">
	<g id="XMLID_172_">
		<g id="XMLID_173_">
			<g id="XMLID_174_">
				<path id="XMLID_175_" d="M256.437,423.351c-6.822-0.234-12.39,5.192-12.39,11.946v24.876c7.922,0.454,15.991,0.454,23.906,0
					v-24.402C267.953,429.145,262.787,423.573,256.437,423.351z"/>
				<path id="XMLID_176_" d="M412.719,314.438c-54.193,0-98.281,44.089-98.281,98.281c0,54.193,44.089,98.281,98.281,98.281
					C466.911,511,511,466.911,511,412.719C511,358.526,466.911,314.438,412.719,314.438z M398.229,460.531h-50.707
					c-3.223,0-6.129-1.941-7.362-4.919c-1.234-2.978-0.552-6.405,1.727-8.685l36.828-36.829c4.875-4.874,5.204-12.814,0.749-18.076
					c-5.678-6.707-16.174-6.203-21.179,1.034l-4.208,6.086c-2.503,3.619-7.465,4.527-11.087,2.022
					c-3.62-2.504-4.525-7.467-2.022-11.087l4.21-6.088c10.968-15.858,33.983-16.989,46.451-2.266
					c9.77,11.54,9.048,28.953-1.643,39.645l-23.226,23.225h31.469c4.401,0,7.969,3.567,7.969,7.969S402.63,460.531,398.229,460.531z
					 M485.885,428.656c0,4.401-3.567,7.969-7.969,7.969h-7.969v15.938c0,4.401-3.567,7.969-7.969,7.969s-7.969-3.567-7.969-7.969
					v-15.938h-39.776c-3.111,0-5.937-1.811-7.238-4.636c-1.301-2.826-0.838-6.151,1.184-8.515l47.745-55.781
					c2.17-2.533,5.687-3.448,8.817-2.293c3.129,1.156,5.207,4.139,5.207,7.475v47.813h7.969
					C482.318,420.688,485.885,424.255,485.885,428.656z"/>
				<path id="XMLID_180_" d="M120.767,374.33l-17.855,17.854c5.295,5.958,10.938,11.604,16.903,16.905l17.854-17.855
					c4.675-4.676,4.677-12.227,0.001-16.904C132.995,369.655,125.443,369.653,120.767,374.33z"/>
				<path id="XMLID_181_" d="M343.656,263.969c4.439,0,7.969-3.629,7.969-7.969c0-4.394-3.574-7.969-7.969-7.969h-48.614
					c1.068,5.242,1.07,10.684,0,15.938H343.656z"/>
				<polygon id="XMLID_182_" points="454.01,420.688 454.01,394.439 431.544,420.688 				"/>
				<path id="XMLID_183_" d="M256,232.094c-13.182,0-23.906,10.725-23.906,23.906c0,13.182,10.725,23.906,23.906,23.906
					c13.182,0,23.906-10.725,23.906-23.906C279.906,242.818,269.182,232.094,256,232.094z"/>
				<path id="XMLID_184_" d="M76.703,244.047H51.827c-0.229,3.957-0.358,7.94-0.358,11.953s0.127,7.996,0.352,11.953h24.883
					c6.591,0,11.953-5.362,11.953-11.953C88.656,249.409,83.294,244.047,76.703,244.047z"/>
				<path id="XMLID_185_" d="M248.031,144.438v72.521c5.242-1.069,10.685-1.071,15.938,0v-72.521c0-4.439-3.629-7.969-7.969-7.969
					C251.606,136.469,248.031,140.043,248.031,144.438z"/>
				<path id="XMLID_186_" d="M137.67,120.767l-17.521-17.521c-5.956,5.303-11.601,10.948-16.904,16.905l17.52,17.519
					c4.675,4.675,12.227,4.677,16.904,0.001C142.345,132.995,142.347,125.443,137.67,120.767z"/>
				<path id="XMLID_187_" d="M460.175,267.953c0.457-7.924,0.457-15.974,0-23.906h-24.403c-6.626,0-12.198,5.166-12.42,11.516
					c-0.237,6.825,5.198,12.39,11.946,12.39H460.175z"/>
				<path id="XMLID_188_" d="M391.233,137.67l17.856-17.855c-5.301-5.965-10.947-11.608-16.905-16.903l-17.853,17.853
					c-4.675,4.675-4.677,12.227-0.001,16.904C379.005,142.345,386.557,142.347,391.233,137.67z"/>
				<path id="XMLID_189_" d="M256.001,1C188.06,1,124.071,27.572,75.821,75.821C27.572,124.071,1,188.06,1,256.001
					C1.001,396.608,115.393,511,256,511h0.201c6.478-0.005,11.752-5.345,11.752-11.904v-22.957
					C141.998,483.076,35.531,382.609,35.531,256c0-121.374,98.76-220.469,220.469-220.469
					c126.158,0,227.019,105.918,220.134,232.422h22.961c6.56,0,11.899-5.274,11.904-11.758V256C511,115.393,396.608,1.001,256.001,1
					z"/>
				<path id="XMLID_190_" d="M267.953,76.703V51.82c-8.335-0.472-15.728-0.467-23.906,0.007v24.876
					c0,6.591,5.362,11.953,11.953,11.953C262.591,88.656,267.953,83.294,267.953,76.703z"/>
			</g>
		</g>
	</g>
</g>
<g id="Layer_1">
</g>
</svg>
