<?xml version="1.0" encoding="iso-8859-1"?>
<!-- Generator: Adobe Illustrator 24.1.0, SVG Export Plug-In . SVG Version: 6.00 Build 0)  -->
<svg version="1.1" xmlns="http://www.w3.org/2000/svg" xmlns:xlink="http://www.w3.org/1999/xlink" x="0px" y="0px"
	 viewBox="0 0 512 512" style="enable-background:new 0 0 512 512;" xml:space="preserve">
<g id="_x33_5_x2C__Glass_hour_x2C__timer_x2C__watch_x2C__clock">
	<g>
		<g>
			<path d="M420.688,457.875h-10.625H101.938H91.313c-14.647,0-26.563,11.916-26.563,26.563S76.666,511,91.313,511h329.375
				c14.647,0,26.563-11.916,26.563-26.563S435.334,457.875,420.688,457.875z"/>
			<path d="M351.625,117.875h-191.25v31.875c0,52.728,42.897,95.625,95.625,95.625s95.625-42.897,95.625-95.625V117.875z"/>
			<path d="M91.313,54.125h10.625h308.125h10.625c14.647,0,26.563-11.916,26.563-26.563S435.334,1,420.688,1H91.313
				C76.666,1,64.75,12.916,64.75,27.563S76.666,54.125,91.313,54.125z"/>
			<path d="M160.375,394.125h191.25V362.25c0-52.728-42.897-95.625-95.625-95.625s-95.625,42.897-95.625,95.625V394.125z"/>
			<path d="M298.447,249.845c62.59-18.603,106.303-77.24,106.303-142.595v-42.5h-297.5v42.5
				c0,65.355,43.713,123.992,106.303,142.595c2.254,0.67,3.799,2.741,3.799,5.093c0,2.351-1.546,4.422-3.799,5.093
				c-62.59,18.603-106.303,77.24-106.303,142.595v44.625h297.5v-44.625c0-65.355-43.713-123.992-106.303-142.595
				c-2.254-0.67-3.799-2.741-3.799-5.093C294.647,252.586,296.193,250.515,298.447,249.845z M362.25,362.25v37.188
				c0,2.934-2.379,5.313-5.313,5.313H155.063c-2.934,0-5.313-2.378-5.313-5.313V362.25C149.75,303.663,197.414,256,256,256
				c-58.586,0-106.25-47.664-106.25-106.25v-37.188c0-2.934,2.379-5.313,5.313-5.313h201.875c2.934,0,5.313,2.379,5.313,5.313
				v37.188C362.25,208.336,314.586,256,256,256C314.586,256,362.25,303.663,362.25,362.25z"/>
		</g>
	</g>
</g>
<g id="Layer_1">
</g>
</svg>
