<?xml version="1.0" encoding="iso-8859-1"?>
<!-- Generator: Adobe Illustrator 24.1.0, SVG Export Plug-In . SVG Version: 6.00 Build 0)  -->
<svg version="1.1" xmlns="http://www.w3.org/2000/svg" xmlns:xlink="http://www.w3.org/1999/xlink" x="0px" y="0px"
	 viewBox="0 0 512 512" style="enable-background:new 0 0 512 512;" xml:space="preserve">
<g id="_x30_8_x2C__time_x2C__chronometer_x2C__timer_x2C__fast_x2C_speed">
	<g>
		<g>
			<g>
				<path id="XMLID_145_" d="M31.652,421.638H21.217c-2.881,0-5.217,2.336-5.217,5.217c0,2.882,2.336,5.217,5.217,5.217h10.435
					c2.881,0,5.217-2.336,5.217-5.217C36.87,423.974,34.533,421.638,31.652,421.638z"/>
				<path id="XMLID_142_" d="M422.957,291.203c0-2.882,2.336-5.217,5.217-5.217h15.552c-0.809-23.734-7.107-46.096-17.667-65.856
					l-13.451,7.766c-2.487,1.436-5.681,0.594-7.127-1.91c-1.441-2.496-0.586-5.686,1.91-7.127l13.434-7.756
					c-12.206-19.482-28.721-35.997-48.203-48.203l-7.756,13.434c-0.967,1.674-2.72,2.61-4.523,2.61
					c-3.969,0-6.533-4.328-4.513-7.827l7.766-13.451c-19.76-10.56-42.123-16.858-65.856-17.667v15.552
					c0,2.881-2.336,5.217-5.217,5.217s-5.217-2.336-5.217-5.217v-15.552c-23.734,0.809-46.096,7.107-65.856,17.667l7.766,13.451
					c1.441,2.496,0.586,5.686-1.91,7.127c-2.487,1.436-5.681,0.594-7.127-1.91l-7.756-13.434
					c-19.482,12.206-35.997,28.722-48.203,48.203l13.434,7.756c2.496,1.441,3.351,4.631,1.91,7.127
					c-1.443,2.499-4.634,3.348-7.127,1.91l-13.451-7.766c-10.56,19.76-16.858,42.123-17.667,65.856h15.552
					c2.881,0,5.217,2.336,5.217,5.217c0,2.882-2.336,5.217-5.217,5.217h-15.552c0.809,23.734,7.107,46.096,17.667,65.856
					l13.451-7.766c2.496-1.442,5.687-0.586,7.127,1.91c1.441,2.496,0.586,5.686-1.91,7.127l-13.434,7.756
					c12.207,19.482,28.722,35.997,48.203,48.203l7.756-13.435c1.439-2.494,4.63-3.352,7.127-1.91
					c2.496,1.441,3.351,4.631,1.91,7.127l-7.766,13.451c19.76,10.56,42.122,16.858,65.856,17.667v-15.552
					c0-2.882,2.336-5.217,5.217-5.217s5.217,2.336,5.217,5.217v15.552c23.734-0.809,46.096-7.107,65.856-17.667l-7.766-13.451
					c-1.441-2.496-0.586-5.686,1.91-7.127c2.498-1.442,5.687-0.586,7.127,1.91l7.756,13.435
					c19.482-12.207,35.997-28.721,48.203-48.203l-13.434-7.756c-2.496-1.441-3.351-4.631-1.91-7.127
					c1.441-2.495,4.63-3.352,7.127-1.91l13.451,7.766c10.56-19.76,16.858-42.123,17.667-65.856h-15.552
					C425.293,296.421,422.957,294.085,422.957,291.203z M297.739,316.765v16.177c0,2.882-2.336,5.217-5.217,5.217
					s-5.217-2.336-5.217-5.217v-16.177c-11.893-2.424-20.87-12.964-20.87-25.562c0-12.598,8.977-23.138,20.87-25.562V197.29
					c0-2.881,2.336-5.217,5.217-5.217s5.217,2.336,5.217,5.217v68.351c11.893,2.424,20.87,12.964,20.87,25.562
					C318.609,303.801,309.632,314.342,297.739,316.765z"/>
				<circle id="XMLID_141_" cx="292.522" cy="291.203" r="15.652"/>
				<path id="XMLID_140_" d="M266.435,78.884c17.38-2.123,34.767-2.126,52.174,0V26.16h8.609v-8.841h-69.391v8.841h8.609V78.884z"/>
				<path id="XMLID_131_" d="M292.522,87.725c-112.198,0-203.478,91.28-203.478,203.478c0,31.777,7.328,61.873,20.373,88.696h-67.33
					c-2.881,0-5.217,2.336-5.217,5.217c0,2.882,2.336,5.217,5.217,5.217h72.794c6.229,11.118,13.468,21.595,21.597,31.304H73.391
					c-2.881,0-5.217,2.336-5.217,5.217c0,2.882,2.336,5.217,5.217,5.217h72.442c11.449,11.917,24.333,22.442,38.37,31.304H42.087
					c-2.881,0-5.217,2.336-5.217,5.217c0,2.882,2.336,5.217,5.217,5.217h160.742c27.074,13.352,57.52,20.87,89.693,20.87
					C404.72,494.682,496,403.402,496,291.203S404.72,87.725,292.522,87.725z M292.522,452.943
					c-88.383,0.052-161.687-71.683-161.777-161.74c-0.088-87.756,71.005-161.638,161.777-161.74
					c88.948-0.1,161.828,72.416,161.74,161.739C454.172,381.217,381.133,452.891,292.522,452.943z"/>
			</g>
		</g>
	</g>
</g>
<g id="Layer_1">
</g>
</svg>
