<?xml version="1.0" encoding="iso-8859-1"?>
<!-- Generator: Adobe Illustrator 19.0.0, SVG Export Plug-In . SVG Version: 6.00 Build 0)  -->
<svg version="1.1" xmlns="http://www.w3.org/2000/svg" xmlns:xlink="http://www.w3.org/1999/xlink" x="0px" y="0px"
	 viewBox="0 0 512 512" style="enable-background:new 0 0 512 512;" xml:space="preserve">
<g id="_x31_5_x2C__Location_x2C__map_x2C__pin_x2C__sign._mark">
	<g id="XMLID_174_">
		<path id="XMLID_108_" d="M151.087,398.927c-0.155-0.09-0.306-0.182-0.45-0.288c-0.13-0.095-0.25-0.198-0.368-0.304
			c-0.12-0.108-0.236-0.217-0.345-0.335c-0.111-0.121-0.213-0.247-0.311-0.377c-0.096-0.128-0.188-0.257-0.272-0.394
			c-0.083-0.135-0.156-0.274-0.226-0.416c-0.073-0.148-0.139-0.296-0.197-0.452c-0.056-0.15-0.101-0.302-0.142-0.458
			c-0.041-0.154-0.078-0.307-0.104-0.466c-0.029-0.177-0.043-0.354-0.054-0.533c-0.005-0.095-0.028-0.185-0.028-0.282V226.903
			H40.048v223.652h212.699l-101.42-51.474C151.24,399.037,151.17,398.976,151.087,398.927z"/>
		<path id="XMLID_107_" d="M341.841,169.109c17.818,0,32.315-14.497,32.315-32.315c0-17.818-14.497-32.315-32.315-32.315
			c-17.804,0-32.289,14.497-32.289,32.315C309.552,154.613,324.037,169.109,341.841,169.109z"/>
		<path id="XMLID_177_" d="M263.612,143.422c3.047,24.117,35.054,75.049,58.751,112.747c7.51,11.947,14.234,22.644,19.484,31.533
			c5.633-9.505,12.854-20.864,20.401-32.737c24.511-38.561,58.08-91.371,58.08-115.032c0-43.278-35.209-78.487-78.487-78.487
			s-78.487,35.209-78.487,78.487c0,0.951,0.083,1.979,0.203,3.041C263.588,143.119,263.594,143.272,263.612,143.422z
			 M341.841,94.479c23.333,0,42.315,18.982,42.315,42.315c0,23.333-18.982,42.315-42.315,42.315
			c-23.318,0-42.289-18.982-42.289-42.315C299.552,113.461,318.523,94.479,341.841,94.479z"/>
		<polygon id="XMLID_104_" points="268.647,447.41 268.647,399.622 174.49,399.622 		"/>
		<path id="XMLID_103_" d="M429.279,149.028c-5.783,28.205-34.786,73.849-58.592,111.3c-9.604,15.108-18.674,29.378-24.475,39.829
			c-0.881,1.588-2.555,2.573-4.372,2.573c0,0-0.001,0-0.001,0c-1.818-0.001-3.492-0.987-4.373-2.576
			c-5.458-9.851-13.852-23.203-23.57-38.664c-24.072-38.293-53.375-84.925-59.407-112.462H158.59v72.875v167.719h115.057h198.305
			V149.028H429.279z"/>
	</g>
</g>
<g id="Layer_1">
</g>
</svg>
