<?xml version="1.0" encoding="utf-8"?><!-- Uploaded to: SVG Repo, www.svgrepo.com, Generator: SVG Repo Mixer Tools -->
<svg fill="#000000" width="800px" height="800px" viewBox="0 0 24 24" id="shovel" data-name="Flat Color" xmlns="http://www.w3.org/2000/svg" class="icon flat-color"><path id="secondary" d="M9,16a1,1,0,0,1-.7-.29,1,1,0,0,1,0-1.42l7.71-7.71a1,1,0,0,1,1.41,0,1,1,0,0,1,0,1.41L9.75,15.67A1,1,0,0,1,9,16Z" style="fill: rgb(44, 169, 188);"></path><path id="primary" d="M12.57,17.07a1,1,0,0,1,.3.71,1,1,0,0,1-.3.71C11.43,19.63,9.06,22,5.64,22a8.11,8.11,0,0,1-2.55-.43,1,1,0,0,1-.33-.17h0a1.14,1.14,0,0,1-.16-.15.92.92,0,0,1-.16-.31c-1.61-4.82,1.67-8.1,3.06-9.49a1,1,0,0,1,1.43,0ZM21.71,5.12,18.88,2.29a1,1,0,0,0-1.42,0L16.05,3.71a3,3,0,0,0,0,4.24h0a3,3,0,0,0,4.24,0l1.42-1.41A1.05,1.05,0,0,0,22,5.83,1,1,0,0,0,21.71,5.12Z" style="fill: rgb(0, 0, 0);"></path></svg>