<?xml version="1.0" encoding="iso-8859-1"?>
<!-- Generator: Adobe Illustrator 24.1.0, SVG Export Plug-In . SVG Version: 6.00 Build 0)  -->
<svg version="1.1" xmlns="http://www.w3.org/2000/svg" xmlns:xlink="http://www.w3.org/1999/xlink" x="0px" y="0px"
	 viewBox="0 0 512 512" style="enable-background:new 0 0 512 512;" xml:space="preserve">
<g id="_x31_9_x2C__Measuring_Tape_x2C__fitness_x2C__sports_and_competition_x2C__miscellaneous_x2C__tool_x2C__gym">
	<g>
		<g>
			<path d="M415.375,415.375h-7.969c-4.402,0-7.969-3.567-7.969-7.969V383.5c-80.292-0.032-78.612,0-179.297,0
				C129.947,383.5,37.291,341.053,1,270.243v37.553c0,26.68,8.627,51.886,23.906,74.151v-14.385c0-4.401,3.567-7.969,7.969-7.969
				s7.969,3.567,7.969,7.969v34.05c7.161,7.583,15.162,14.694,23.906,21.255v-15.462c0-4.401,3.567-7.969,7.969-7.969
				c4.401,0,7.969,3.567,7.969,7.969v26.312c9.928,6.121,20.595,11.595,31.875,16.354v-18.76c0-4.401,3.567-7.969,7.969-7.969
				c4.401,0,7.969,3.567,7.969,7.969v24.854c10.228,3.525,20.874,6.486,31.875,8.814v-25.699c0-4.401,3.567-7.969,7.969-7.969
				c4.401,0,7.969,3.567,7.969,7.969v28.59c10.379,1.577,21.024,2.602,31.875,3.039v-23.66c0-4.401,3.567-7.969,7.969-7.969
				c4.401,0,7.969,3.567,7.969,7.969v23.906H256V447.25c0-4.401,3.567-7.969,7.969-7.969c4.401,0,7.969,3.567,7.969,7.969v23.906
				h31.875V447.25c0-4.401,3.567-7.969,7.969-7.969c4.401,0,7.969,3.567,7.969,7.969v23.906h31.875V447.25
				c0-4.401,3.567-7.969,7.969-7.969c4.401,0,7.969,3.567,7.969,7.969v23.906h31.875V447.25c0-4.401,3.567-7.969,7.969-7.969h7.969
				V415.375z"/>
			
				<ellipse transform="matrix(0.7071 -0.7071 0.7071 0.7071 -164.1681 458.3193)" cx="471.156" cy="427.328" rx="7.969" ry="7.969"/>
			<path d="M220.141,311.781c90.737,0,163.359-58.057,163.359-107.578c0-49.25-72.152-107.578-163.359-107.578
				c-90.737,0-163.359,58.057-163.359,107.578C56.781,253.453,128.933,311.781,220.141,311.781z M220.141,144.437
				c44.055,0,115.547,16.582,115.547,59.766c0,43.119-71.33,59.766-115.547,59.766c-44.055,0-115.547-16.582-115.547-59.766
				C104.594,161.084,175.924,144.437,220.141,144.437z"/>
			<path d="M220.141,367.562c120.835,0,219.141-73.282,219.141-163.359c0-90.077-98.306-163.359-219.141-163.359
				S1,114.126,1,204.203C1,294.28,99.306,367.562,220.141,367.562z M220.141,80.687c111.252,0,179.297,72.879,179.297,123.516
				c0,51.249-68.864,123.516-179.297,123.516c-111.252,0-179.297-72.879-179.297-123.516
				C40.844,152.954,109.708,80.687,220.141,80.687z"/>
			<path d="M439.281,367.562v-97.298c-23.208,45.278-69.457,78.906-123.288,97.298H439.281z"/>
			<ellipse cx="220.141" cy="204.203" rx="99.609" ry="43.828"/>
			<path d="M415.375,383.5v15.938h7.969c4.401,0,7.969,3.567,7.969,7.969v39.844c0,4.402-3.567,7.969-7.969,7.969h-7.969v15.938H511
				V383.5H415.375z M471.156,451.234c-13.182,0-23.906-10.725-23.906-23.906c0-13.182,10.725-23.906,23.906-23.906
				c13.182,0,23.906,10.725,23.906,23.906C495.063,440.51,484.338,451.234,471.156,451.234z"/>
		</g>
	</g>
</g>
<g id="Layer_1">
</g>
</svg>
