<?xml version="1.0" encoding="utf-8"?><!-- Uploaded to: SVG Repo, www.svgrepo.com, Generator: SVG Repo Mixer Tools -->
<svg fill="#000000" width="800px" height="800px" viewBox="0 0 24 24" id="hammer-drill-2" data-name="Flat Color" xmlns="http://www.w3.org/2000/svg" class="icon flat-color"><path id="secondary" d="M12,22a1,1,0,0,1-1-1V15a1,1,0,0,1,2,0v6A1,1,0,0,1,12,22ZM20,6H16a1,1,0,0,1,0-2h4a1,1,0,0,1,0,2ZM8,6H4A1,1,0,0,1,4,4H8A1,1,0,0,1,8,6Z" style="fill: rgb(44, 169, 188);"></path><path id="primary" d="M19,21a1,1,0,0,1-1,1H6a1,1,0,0,1,0-2H18A1,1,0,0,1,19,21ZM9,12v2a2,2,0,0,0,2,2h2a2,2,0,0,0,2-2V12a2,2,0,0,0,2-2V4a2,2,0,0,0-2-2H9A2,2,0,0,0,7,4v6A2,2,0,0,0,9,12Z" style="fill: rgb(0, 0, 0);"></path></svg>