<?xml version="1.0" encoding="iso-8859-1"?>
<!-- Generator: Adobe Illustrator 24.1.0, SVG Export Plug-In . SVG Version: 6.00 Build 0)  -->
<svg version="1.1" xmlns="http://www.w3.org/2000/svg" xmlns:xlink="http://www.w3.org/1999/xlink" x="0px" y="0px"
	 viewBox="0 0 512 512" style="enable-background:new 0 0 512 512;" xml:space="preserve">
<g id="_x39__x2C__Frame_x2C__hour_glass_x2C__speed_x2C__time">
	<g>
		<g>
			<path style="fill:#C5E6F0;" d="M256,256c73.226,0,132.6,59.364,132.6,132.6c0,7.404,0,53.747,0,61.2L256,470.537L123.4,449.8
				c0-7.404,0-53.747,0-61.2C123.4,315.374,182.764,256,256,256z"/>
			<path style="fill:#E3F5FF;" d="M162.236,217.163C138.241,193.168,123.4,160.018,123.4,123.4c0-7.404,0-53.747,0-61.2L256,43.497
				L388.6,62.2c0,7.404,0,53.747,0,61.2c0,36.618-14.841,69.768-38.837,93.763C298.017,268.91,214.068,268.995,162.236,217.163z"/>
			<path style="fill:#8E572E;" d="M429.4,36.7c-2.816,0-5.1,2.283-5.1,5.1c0,11.263,0,424.916,0,444.04c0,2.817,2.284,5.1,5.1,5.1
				c2.816,0,5.1-2.283,5.1-5.1c0-11.285,0-432.367,0-444.04C434.5,38.983,432.216,36.7,429.4,36.7z"/>
			<path style="fill:#8E572E;" d="M82.6,36.7c-2.816,0-5.1,2.283-5.1,5.1c0,42.804,0,419.39,0,433.5c0,2.817,2.284,5.1,5.1,5.1
				c2.816,0,5.1-2.283,5.1-5.1c0-21.352,0-411.886,0-433.5C87.7,38.983,85.416,36.7,82.6,36.7z"/>
			<path style="fill:#C17D4F;" d="M419.2,1c16.901,0,30.6,13.709,30.6,30.6c0,17.071-13.889,30.6-30.6,30.6
				c-12.549,0-310.116,0-326.4,0c-16.72,0-30.6-13.54-30.6-30.6C62.2,14.709,75.908,1,92.8,1H419.2z"/>
			<path style="fill:#C17D4F;" d="M449.8,480.4c0,16.901-13.699,30.6-30.6,30.6H92.8c-16.742,0-30.6-13.561-30.6-30.6
				c0-17.047,13.862-30.6,30.6-30.6c16.285,0,313.853,0,326.4,0C436.013,449.8,449.8,463.438,449.8,480.4z"/>
			<path style="fill:#C5E6F0;" d="M256,261.1c-47.806,0-86.7-38.893-86.7-86.7c0-2.817,2.284-5.1,5.1-5.1c2.816,0,5.1,2.283,5.1,5.1
				c0,42.183,34.318,76.5,76.5,76.5s76.5-34.317,76.5-76.5c0-2.817,2.284-5.1,5.1-5.1c2.816,0,5.1,2.283,5.1,5.1
				C342.7,222.206,303.806,261.1,256,261.1z"/>
			<path style="fill:#AED7E6;" d="M337.6,342.7c-2.816,0-5.1-2.283-5.1-5.1c0-42.182-34.318-76.5-76.5-76.5s-76.5,34.318-76.5,76.5
				c0,2.817-2.284,5.1-5.1,5.1c-2.816,0-5.1-2.283-5.1-5.1c0-47.806,38.894-86.7,86.7-86.7s86.7,38.894,86.7,86.7
				C342.7,340.417,340.416,342.7,337.6,342.7z"/>
		</g>
	</g>
</g>
<g id="Layer_1">
</g>
</svg>
