<?xml version="1.0" encoding="iso-8859-1"?>
<!-- Generator: Adobe Illustrator 24.1.0, SVG Export Plug-In . SVG Version: 6.00 Build 0)  -->
<svg version="1.1" xmlns="http://www.w3.org/2000/svg" xmlns:xlink="http://www.w3.org/1999/xlink" x="0px" y="0px"
	 viewBox="0 0 512 512" style="enable-background:new 0 0 512 512;" xml:space="preserve">
<g id="_x30_1_x2C__Location_x2C__place_holder_x2C__location_pin_x2C__map_x2C__pointer">
	<g>
		<g>
			<g>
				<path id="XMLID_5_" d="M256,398.86c9.433-6.587,40.323-29.3,70.837-64.335c33.373-38.319,73.156-99.703,73.156-174.531
					C399.993,80.595,335.398,16,256,16S112.007,80.595,112.007,159.993c0,74.829,39.782,136.212,73.156,174.531
					C215.677,369.56,246.567,392.273,256,398.86z M256,69.331c49.991,0,90.662,40.671,90.662,90.662S305.991,250.656,256,250.656
					s-90.662-40.671-90.662-90.662S206.009,69.331,256,69.331z"/>
				<path id="XMLID_2_" d="M256,239.989c44.11,0,79.996-35.886,79.996-79.996S300.11,79.997,256,79.997
					s-79.996,35.886-79.996,79.996S211.89,239.989,256,239.989z M256,111.995c26.466,0,47.998,21.532,47.998,47.998
					S282.466,207.991,256,207.991s-47.998-21.532-47.998-47.998S229.534,111.995,256,111.995z"/>
				<path id="XMLID_1_" d="M416.199,359.165c-16.83-13.652-40.579-24.932-68.817-32.744c-4.054,5.157-8.282,10.273-12.699,15.337
					c-37.39,42.865-74.226,67.022-75.776,68.029c-1.759,1.142-4.035,1.155-5.813,0c-1.549-1.007-38.385-25.164-75.776-68.029
					c-4.417-5.064-8.646-10.18-12.699-15.337c-28.238,7.812-51.987,19.093-68.817,32.744c-17.31,14.04-26.459,29.999-26.459,46.15
					c0,23.516,18.924,45.929,53.285,63.109c73.534,36.767,193.209,36.768,266.746,0c34.361-17.18,53.285-39.594,53.285-63.109
					C442.658,389.163,433.508,373.205,416.199,359.165z"/>
			</g>
		</g>
	</g>
</g>
<g id="Layer_1">
</g>
</svg>
